<svg width="20" height="20" viewBox="0 0 20 20" fill="none" xmlns="http://www.w3.org/2000/svg">
  <path fill-rule="evenodd" clip-rule="evenodd"
        d="M10.0007 18.5416C14.7181 18.5416 18.5423 14.7174 18.5423 9.99998C18.5423 5.28255 14.7181 1.45831 10.0007 1.45831C5.28322 1.45831 1.45898 5.28255 1.45898 9.99998C1.45898 14.7174 5.28322 18.5416 10.0007 18.5416ZM16.6673 9.99998C16.6673 13.6819 13.6825 16.6666 10.0007 16.6666C6.31875 16.6666 3.33398 13.6819 3.33398 9.99998C3.33398 6.31808 6.31875 3.33331 10.0007 3.33331C13.6825 3.33331 16.6673 6.31808 16.6673 9.99998ZM10.9382 5.83331C10.9382 5.31555 10.5184 4.89581 10.0007 4.89581C9.48288 4.89581 9.06315 5.31555 9.06315 5.83331V9.48219C9.06315 10.0624 9.29361 10.6187 9.70384 11.029L11.0044 12.3296C11.3705 12.6957 11.9641 12.6957 12.3302 12.3296C12.6963 11.9634 12.6963 11.3699 12.3302 11.0037L11.0297 9.70316C10.9711 9.64456 10.9382 9.56507 10.9382 9.48219V5.83331Z"
        fill="#7C7B7B"/>
</svg>
