<svg width="20" height="20" viewBox="0 0 20 20" fill="none" xmlns="http://www.w3.org/2000/svg">
  <path fill-rule="evenodd" clip-rule="evenodd"
        d="M5.37353 4.44557C5.25858 4.44557 5.15165 4.50251 5.09018 4.59643L3.31383 7.31094C3.23735 7.42782 3.24595 7.57875 3.33526 7.68679L9.73808 15.4328C9.87232 15.5951 10.1277 15.5951 10.2619 15.4328L16.6647 7.68679C16.754 7.57875 16.7627 7.42782 16.6862 7.31094L14.9098 4.59643C14.8484 4.50251 14.7414 4.44557 14.6265 4.44557H5.37353ZM3.39013 3.5561C3.82038 2.89861 4.56892 2.50006 5.37353 2.50006H14.6265C15.4311 2.50006 16.1796 2.89861 16.6099 3.5561L18.3862 6.2706C18.9216 7.08875 18.8614 8.14525 18.2362 8.90153L11.8334 16.6475C10.8938 17.7842 9.10623 17.7843 8.16658 16.6475L1.76376 8.90153C1.13861 8.14525 1.07839 7.08875 1.61378 6.2706L3.39013 3.5561Z"
        fill="#7C7B7B"/>
</svg>
