<svg width="18" height="18" viewBox="0 0 18 18" fill="none" xmlns="http://www.w3.org/2000/svg">
  <path fill-rule="evenodd" clip-rule="evenodd"
        d="M13.9457 8.07609C13.9457 11.3178 11.3178 13.9457 8.07609 13.9457C4.83442 13.9457 2.20652 11.3178 2.20652 8.07609C2.20652 4.83442 4.83442 2.20652 8.07609 2.20652C11.3178 2.20652 13.9457 4.83442 13.9457 8.07609ZM12.8751 14.2586C11.5499 15.2887 9.88461 15.9022 8.07609 15.9022C3.75386 15.9022 0.25 12.3983 0.25 8.07609C0.25 3.75386 3.75386 0.25 8.07609 0.25C12.3983 0.25 15.9022 3.75386 15.9022 8.07609C15.9022 9.88461 15.2887 11.5499 14.2586 12.8751L17.4635 16.08C17.8455 16.462 17.8455 17.0814 17.4635 17.4635C17.0814 17.8455 16.462 17.8455 16.08 17.4635L12.8751 14.2586Z"
        fill="#7C7B7B"/>
</svg>
